<svg width="20" height="20" fill="none" xmlns="http://www.w3.org/2000/svg"><mask id="a" style="mask-type:alpha" maskUnits="userSpaceOnUse" x="13" y="5" width="7" height="11"><path d="m16.5 13.5 2 2 .5.498h1V5.496h-6.037v2.682h2.155c.206 2.047-.502 3.151-1.118 3.822-.072.079 1 1 1.5 1.5Z" fill="#D9D9D9"/></mask><g mask="url(#a)"><path fill-rule="evenodd" clip-rule="evenodd" d="M16.926 10.166a9.2 9.2 0 0 0-.231-3.51c.462.001.852.171 1.171.511.32.341.48.758.48 1.252 0 .493-.16.91-.48 1.251a1.543 1.543 0 0 1-.94.496Zm-.122.721c.393.008.785.054 1.178.14.419.082.827.212 1.224.388.254.106.452.282.596.529.132.235.198.493.198.775v.987h-4.339a8.526 8.526 0 0 0 1.143-2.819Z" fill="#fff"/></g><path fill-rule="evenodd" clip-rule="evenodd" d="M3.305 6.656c-.462.001-.852.171-1.171.511-.32.341-.48.758-.48 1.252 0 .493.16.91.48 1.251.264.282.578.447.94.496a9.198 9.198 0 0 1 .231-3.51Zm-.11 4.231a6.045 6.045 0 0 0-1.177.14c-.419.082-.827.212-1.224.388a1.217 1.217 0 0 0-.595.529 1.553 1.553 0 0 0-.199.775v.987h4.339a8.527 8.527 0 0 1-1.143-2.819Z" fill="#fff"/><mask id="b" style="mask-type:alpha" maskUnits="userSpaceOnUse" x="2" y="2" width="15" height="15"><path d="M17 2H5.5L16 13l1-11ZM14.5 16.5l-12-12v12h12Z" fill="#0F6"/></mask><g mask="url(#b)"><path d="M9.167 16h1.666v-2.317c1.195-.174 2.188-.672 2.98-1.494.791-.835 1.187-1.806 1.187-2.915h-1.667c0 .823-.326 1.526-.979 2.112-.653.585-1.437.878-2.354.878s-1.701-.293-2.354-.878c-.653-.586-.98-1.29-.98-2.112H5c0 1.109.396 2.08 1.188 2.915.791.822 1.784 1.32 2.979 1.494V16ZM10 10.769c.458 0 .847-.143 1.167-.43.333-.299.5-.654.5-1.065v-4.78c0-.41-.167-.76-.5-1.046A1.645 1.645 0 0 0 10 3c-.458 0-.854.15-1.188.448-.319.287-.479.636-.479 1.047v4.78c0 .41.16.765.48 1.064.333.287.729.43 1.187.43Z" fill="#fff"/></g><path d="m17.657 20-8.829-8.828L0 2.343 1.343 1 19 18.657 17.657 20Z" fill="#fff"/></svg>